<?xml version="1.0" encoding="UTF-8" standalone="no"?>
<!-- Created with Inkscape (http://www.inkscape.org/) -->

<svg
   version="1.1"
   id="svg2"
   width="1122.52"
   height="1122.52"
   viewBox="0 0 1122.52 1122.52"
   sodipodi:docname="grs-gabungan-rakyat-sabah-seeklogo.ai"
   xmlns:inkscape="http://www.inkscape.org/namespaces/inkscape"
   xmlns:sodipodi="http://sodipodi.sourceforge.net/DTD/sodipodi-0.dtd"
   xmlns="http://www.w3.org/2000/svg"
   xmlns:svg="http://www.w3.org/2000/svg">
  <defs
     id="defs6">
    <clipPath
       clipPathUnits="userSpaceOnUse"
       id="clipPath16">
      <path
         d="M 0,841.89 H 841.89 V 0 H 0 Z"
         id="path14" />
    </clipPath>
  </defs>
  <sodipodi:namedview
     id="namedview4"
     pagecolor="#ffffff"
     bordercolor="#000000"
     borderopacity="0.25"
     inkscape:showpageshadow="2"
     inkscape:pageopacity="0.0"
     inkscape:pagecheckerboard="0"
     inkscape:deskcolor="#d1d1d1" />
  <g
     id="g8"
     inkscape:groupmode="layer"
     inkscape:label="grs-gabungan-rakyat-sabah-seeklogo"
     transform="matrix(1.3333333,0,0,-1.3333333,0,1122.52)">
    <g
       id="g10">
      <g
         id="g12"
         clip-path="url(#clipPath16)">
        <g
           id="g18"
           transform="translate(187.8638,414.0657)">
          <path
             d="m 0,0 c 0,45.744 33.329,79.072 79.727,79.072 28.753,0 51.189,-10.891 66.874,-32.239 L 124.6,30.278 C 111.748,45.526 98.024,52.497 79.944,52.497 50.537,52.497 29.625,30.496 29.625,0 c 0,-30.061 20.476,-52.933 50.319,-52.933 22.219,0 40.299,12.633 47.052,33.545 H 63.825 V 4.356 h 95.41 c 0.218,-0.435 0.218,-2.396 0.218,-4.574 0,-46.398 -33.546,-79.291 -79.291,-79.291 C 33.111,-79.509 0,-45.527 0,0"
             style="fill:#27336b;fill-opacity:1;fill-rule:nonzero;stroke:none"
             id="path20" />
        </g>
        <g
           id="g22"
           transform="translate(423.3286,424.5211)">
          <path
             d="M 0,0 C 11.763,0 21.783,7.406 21.783,19.387 21.783,32.239 11.763,40.299 0,40.299 H -23.09 V 0 Z M -52.062,65.567 H 0 c 29.189,0 50.319,-17.862 50.319,-46.18 0,-20.476 -11.981,-35.289 -30.279,-41.388 l 50.538,-64.914 h -34.2 l -48.141,61.864 H -23.09 v -61.864 h -28.972 z"
             style="fill:#e01e25;fill-opacity:1;fill-rule:nonzero;stroke:none"
             id="path24" />
        </g>
        <g
           id="g26"
           transform="translate(604.3409,477.6718)">
          <path
             d="m 0,0 -12.199,-20.694 c -8.495,6.535 -22.654,10.674 -33.328,10.674 -12.634,0 -20.912,-6.317 -20.912,-15.684 0,-25.268 73.192,-15.248 73.192,-69.053 0,-28.971 -20.912,-48.358 -52.933,-48.358 -21.348,0 -40.299,9.149 -55.983,21.566 l 14.813,20.693 c 16.119,-10.891 28.099,-16.555 40.734,-16.555 14.159,0 23.743,7.189 23.743,18.08 0,30.497 -73.19,17.209 -73.19,70.142 0,27.011 19.604,44.655 49.447,44.655 C -28.318,15.466 -9.802,8.278 0,0"
             style="fill:#2b7dbf;fill-opacity:1;fill-rule:nonzero;stroke:none"
             id="path28" />
        </g>
        <g
           id="g30"
           transform="translate(39.0835,418.6223)">
          <path
             d="m 0,0 c 0,0 42.103,5.263 102.424,57.892 46.705,40.749 68.169,78.829 75.479,93.944 1.986,4.106 6.297,6.551 10.842,6.161 19.158,-1.64 68.468,-5.364 88.163,-2.135 24.695,4.048 29.148,19.837 29.148,19.837 0,0 13.36,3.239 46.152,-6.477 32.791,-9.717 33.196,-15.789 46.151,-4.454 12.955,11.336 23.48,37.245 27.934,36.436 4.453,-0.81 33.803,-32.387 49.997,-31.173 16.193,1.215 18.42,8.299 26.112,7.49 7.692,-0.81 37.042,-21.659 71.858,-65.381 34.816,-43.723 61.333,-63.964 78.336,-63.357 17.003,0.607 14.169,5.263 17.813,2.226 3.644,-3.036 49.795,-64.773 63.559,-68.215 13.765,-3.441 14.372,-1.416 14.372,-1.416 0,0 -14.169,-2.43 -36.435,29.755 -22.266,32.184 -40.079,49.795 -42.103,49.795 -2.024,0 -14.777,-6.882 -27.934,2.226 -13.157,9.109 -42.71,39.067 -68.012,69.835 -25.303,30.767 -54.653,59.713 -66.191,60.725 -11.538,1.012 -19.432,-7.084 -29.553,-5.668 -10.121,1.417 -40.281,33.602 -51.819,32.59 0,0 -9.919,-0.405 -23.481,-20.849 -13.562,-20.445 -15.384,-24.088 -17.408,-23.886 -2.024,0.203 -61.231,20.394 -78.993,18.117 -17.763,-2.277 -11.538,-16.092 -28.238,-20.191 -16.699,-4.099 -42.811,-1.822 -60.573,-0.608 -17.763,1.215 -40.535,3.492 -47.366,-5.769 C 163.402,158.19 131.511,94.461 84.004,52.831 25.1,1.215 0,0 0,0"
             style="fill:#93cbef;fill-opacity:1;fill-rule:nonzero;stroke:none"
             id="path32" />
        </g>
      </g>
    </g>
  </g>
</svg>
